<svg width="962" height="200" viewBox="0 0 962 200" fill="none" xmlns="http://www.w3.org/2000/svg">
<path d="M940.459 65.0817C935.519 56.1299 924.872 49.3407 913.306 49.3407C903.135 49.3407 894.188 53.5065 894.188 64.308C894.188 73.4034 905.451 79.5728 917.175 87.1357C929.97 95.155 943.241 105.019 943.241 122.149C943.241 144.515 921.494 158.238 896.35 158.238C886.015 158.238 875.224 156.234 863.039 151.607L865.037 121.836C870.904 133.719 881.859 143.122 898.042 143.122C910.539 143.122 919.788 137.111 919.788 126.617C919.788 117.67 912.225 112.121 902.981 106.571C883.541 94.8525 871.212 85.4346 871.212 68.4738C871.212 43.0176 892.492 34.5371 914.546 34.5371C927.341 34.5371 935.371 36.8531 943.539 36.8531L940.459 65.0817ZM832.653 91.7579C829.866 96.3899 826.335 102.703 824.162 107.34C822.318 116.128 821.39 127.857 821.39 140.806C821.39 146.206 822.318 153.452 824.782 155.922H792.552C798.25 150.526 800.571 117.373 800.268 106.879C795.949 91.9214 790.077 77.5742 781.135 60.1422C775.442 49.197 768.801 38.8516 764.636 36.8531C771.881 36.243 781.135 35.777 785.613 35.777C793.628 35.777 795.795 36.8531 800.735 47.6544C808.432 65.0865 814.14 78.1842 817.537 87.9094C825.715 75.1045 831.418 66.3163 838.822 54.2851C840.672 51.3542 842.215 47.6544 842.215 44.1036C842.215 41.3216 841.748 38.2417 840.518 36.8531H872.447C866.277 38.2417 838.51 81.8938 832.653 91.7579ZM720.522 64.779L701.404 106.259H732.554L720.522 64.779ZM758.005 156.998C747.818 156.998 747.055 156.695 738.877 128.625L735.951 118.29C731.021 120.601 722.218 121.682 708.188 121.682H694L691.53 126.924C687.984 134.8 683.203 144.039 683.203 150.531C683.203 152.073 683.357 153.764 683.977 155.927H599.763C604.548 150.531 606.091 133.104 608.402 101.478L608.863 93.9251C610.098 75.878 611.035 61.9968 610.872 52.2864C610.718 44.2673 609.944 39.1741 607.787 36.8631H640.335C635.703 40.4138 634.002 59.5323 631.849 91.1578L631.229 98.7109C630.456 110.435 628.918 122.461 628.918 134.185C628.918 139.576 631.076 140.811 636.635 140.811C656.368 140.811 661.313 140.349 670.25 134.334C675.799 124.152 682.132 111.347 688.292 98.0861L696.633 80.3512C704.494 63.6931 712.2 46.7222 712.2 43.4886C712.2 41.1678 711.586 39.0154 710.668 36.8531H736.576C736.576 36.8531 747.06 75.7243 749.376 84.046L754.459 102.867C763.247 134.488 768.806 149.906 776.211 155.922C770.031 156.695 761.243 156.998 758.005 156.998ZM548.101 158.238C517.408 158.238 499.668 132.945 499.668 104.568C499.668 65.0865 521.103 34.5371 561.977 34.5371C574.777 34.5371 580.798 36.8531 591.123 36.8531L588.044 67.2389C582.182 56.5961 572.615 49.3457 559.82 49.3457C534.374 49.3457 524.039 76.8054 524.039 100.402C524.039 126.002 538.386 140.032 557.504 140.032C567.839 140.032 576.935 137.255 592.21 126.617C586.04 146.365 571.693 158.238 548.101 158.238ZM441.684 51.3542C438.753 51.3542 435.197 51.3542 432.43 51.6617C431.502 56.7499 430.729 65.5429 429.648 79.7265L429.028 88.0633C430.58 88.3756 432.578 88.5343 434.433 88.5343C449.232 88.5343 459.418 79.5778 459.418 66.0139C459.418 56.7499 452.941 51.3542 441.684 51.3542ZM484.706 161.015C475.918 161.015 473.756 159.621 470.83 155.609L437.513 109.339C434.889 105.793 432.886 102.862 428.725 102.862H427.951L427.341 111.808C426.563 123.993 426.102 133.719 426.102 140.964C426.255 148.984 427.183 153.913 429.345 155.922H397.109C401.731 151.756 403.422 137.875 406.051 101.473L406.517 93.92C407.752 76.0317 408.679 62.1457 408.521 52.4354C408.362 43.9498 407.445 38.7029 405.124 36.8531H449.078C463.421 36.8531 483.164 39.3277 483.164 62.6117C483.164 81.7302 470.359 92.2241 454.479 97.1535C456.021 98.5471 458.793 102.093 460.495 104.255L484.706 136.337C499.822 156.234 501.052 157.157 506.458 159.934C499.668 160.703 490.573 161.015 484.706 161.015ZM334.498 64.779L315.206 106.259H346.514L334.498 64.779ZM371.966 156.998C361.794 156.998 361.02 156.695 352.847 128.625L349.916 118.29C344.972 120.601 336.184 121.682 322.149 121.682H307.96L305.496 126.924C303.026 132.484 297.01 143.9 297.164 150.531C297.164 152.073 297.318 153.616 297.937 155.927H269.406C277.58 147.754 287.915 128.784 302.257 98.0909L310.589 80.3564C318.142 64.3178 326.166 46.1171 326.166 43.4936C326.166 41.1728 325.556 39.0204 324.624 36.8581H350.541C350.541 36.8581 357.316 62.6167 363.336 84.051L368.425 102.872C377.217 134.493 382.767 149.911 390.171 155.927C383.541 156.695 375.209 156.998 371.966 156.998ZM225.134 51.2005C222.818 51.2005 219.739 51.2005 216.808 51.513C215.573 59.8395 214.799 67.8587 214.189 76.6468C214.189 76.6468 213.723 84.1998 213.723 83.8923H216.808C231.924 83.8923 245.81 78.6504 245.81 64.779C245.81 56.7499 239.174 51.2005 225.134 51.2005ZM221.286 98.3934H212.806L211.571 115.974C210.956 123.691 210.643 130.163 210.49 137.875C210.49 138.961 213.882 141.272 221.896 141.272C238.554 141.272 249.51 132.945 249.51 119.213C249.51 103.943 237.012 98.3934 221.286 98.3934ZM223.136 155.922H181.492C186.739 151.29 188.128 133.248 190.439 101.473L190.9 94.0737C192.14 76.0269 193.063 62.1457 192.909 52.4354C192.755 44.1036 191.828 38.7029 189.512 36.8531H236.09C247.194 36.8531 269.406 37.473 269.406 60.6034C269.406 76.0267 255.059 85.5884 241.952 88.9905C260.46 90.8403 274.341 99.782 274.341 118.905C274.336 139.571 254.905 155.922 223.136 155.922Z" fill="#00AEEF"/>
<path d="M87.7631 20.1838C83.637 20.1838 82.784 20.903 81.4449 22.3958C80.8951 22.3629 80.3443 22.348 79.7935 22.3511C76.6195 22.3511 72.5429 22.8172 69.0665 25.1431C65.709 27.36 64.1121 31.2827 65.9024 34.1542C65.9024 34.1542 67.1026 32.3937 71.0502 32.3937C71.6056 32.3937 72.2206 32.4531 72.8752 32.5077C78.3305 33.1524 82.3674 36.0239 81.8764 43.6067C81.44 51.1846 78.5983 59.6353 66.9736 59.7345C66.9736 59.7345 65.4759 59.7345 63.879 59.5858C58.4684 58.9956 56.7673 55.5984 56.7673 55.5984C56.7673 55.5984 61.444 54.3288 61.4836 48.3924C61.444 44.3555 57.9278 40.6609 52.8544 39.1682C51.1024 38.6734 49.289 38.4297 47.4686 38.4441C41.4876 38.4441 34.7727 40.9485 30.2448 46.8601C19.979 60.4139 19.1458 80.1719 21.6503 98.5462C24.1696 116.96 35.8488 134.016 36.191 134.482C36.439 134.809 36.6622 134.988 36.9151 134.988C37.0651 134.978 37.2072 134.917 37.3168 134.814C42.3605 129.919 47.171 123.229 49.2291 118.756C51.4311 120.511 50.2805 124.245 49.0704 128.233C47.9199 132.309 45.1228 137.72 44.1111 139.466C43.1341 141.172 41.8248 143.155 43.5854 144.192C43.792 144.31 44.0271 144.368 44.2648 144.36C46.5263 144.36 51.8477 140.418 57.784 132.503C64.4295 123.596 67.8018 115.691 67.8018 115.691C68.2878 115.8 69.1012 116.623 68.9673 118.865C68.878 121.141 66.5372 129.611 61.9796 137.497C57.3723 145.377 53.1172 150.307 52.2593 151.428C51.7286 152.077 52.1799 152.484 52.5221 152.747C52.8594 152.975 61.0075 160.582 72.8455 167.01C86.8705 174.483 93.0895 175.828 93.0895 175.828C93.0895 175.828 99.2936 174.518 113.319 167.049C125.152 160.612 133.334 152.97 133.637 152.712C133.979 152.479 134.416 152.112 133.9 151.398C133.091 150.327 128.821 145.372 124.224 137.492C119.681 129.661 117.251 121.136 117.217 118.889C117.122 116.623 117.886 115.874 118.352 115.686C118.352 115.686 121.759 123.64 128.405 132.498C134.371 140.423 139.643 144.356 141.914 144.356C142.16 144.364 142.403 144.305 142.618 144.187C144.324 143.15 143.055 141.137 142.053 139.451C141.121 137.715 138.284 132.339 137.079 128.228C135.923 124.196 134.723 120.466 136.965 118.751C139.028 123.224 143.804 129.949 148.862 134.774C148.917 134.837 148.984 134.887 149.059 134.923C149.134 134.959 149.215 134.979 149.299 134.982C149.522 134.982 149.76 134.809 149.968 134.506C150.34 134.01 162.039 116.985 164.539 98.5412C167.048 80.1272 166.22 60.4139 155.944 46.8551C151.446 40.9287 144.681 38.4093 138.661 38.4093C136.781 38.4093 134.986 38.6524 133.344 39.1235C128.231 40.6609 124.73 44.3904 124.76 48.3876C124.76 54.3239 129.461 55.5934 129.461 55.5934C129.461 55.5934 127.889 58.9063 122.285 59.5808C121.278 59.7055 120.265 59.7684 119.25 59.7692C115.035 59.7692 111.484 58.4302 108.21 53.8081C105.037 49.3596 105.141 40.1998 104.957 37.1448C104.813 34.0452 104.149 27.0922 100.89 24.2555C97.6421 21.3444 93.6846 20.3672 88.75 20.1738C88.388 20.1837 88.0657 20.1838 87.7631 20.1838Z" fill="#00AFE9"/>
</svg>
