<?xml version="1.0" encoding="UTF-8" standalone="no"?>
<svg id="svg2" xmlns:rdf="http://www.w3.org/1999/02/22-rdf-syntax-ns#" xmlns="http://www.w3.org/2000/svg" xml:space="preserve" height="66.513" width="241.61" version="1.1" xmlns:cc="http://creativecommons.org/ns#" viewBox="0 0 241.60515 66.512604" xmlns:dc="http://purl.org/dc/elements/1.1/"><metadata id="metadata8"><rdf:RDF><cc:Work rdf:about=""><dc:format>image/svg+xml</dc:format><dc:type rdf:resource="http://purl.org/dc/dcmitype/StillImage"/><dc:title/></cc:Work></rdf:RDF></metadata><path id="path42" d="m159.05 44.715h10.64v3.2608h-6.6938v1.5444h6.0075v3.0899h-6.0075v1.5444h6.8662v3.2608h-10.812v-12.7m-21.454 4.6338c-0.1725-0.34325-0.515-1.7162-2.06-1.7162-1.8875 0-2.4025 1.7162-2.4025 3.4326 0 1.7162 0.515 3.4326 2.4025 3.4326 1.3725 0 1.8875-0.8585 2.06-2.0596h3.775c0 2.5742-2.06 5.3204-5.6638 5.3204-4.2912 0-6.5212-2.9175-6.5212-6.6934 0-3.9472 2.5738-6.6934 6.5212-6.6934 3.4325 0 5.32 1.8876 5.6638 4.977h-3.775m-37.587-4.6338h3.9472l3.7759 6.8652v-6.8652h3.7759v12.7h-3.7759l-3.9472-6.8651v6.8651h-3.7759v-12.7m-25.401 8.2382 1.2018-3.9478 1.2011 3.9478h-2.4029zm-5.3202 4.4619h3.9472l0.51512-1.7158h4.1191l0.51462 1.7158h4.1191l-4.6338-12.7h-3.9472l-4.6342 12.7m-28.491-12.7h3.9478v4.4619h3.7759v-4.4619h3.9478v12.7h-3.9478v-4.977h-3.7759v4.977h-3.9478v-12.7m-21.454 4.6338c-0.17138-0.34325-0.51462-1.7162-2.0591-1.7162-1.8881 0-2.4028 1.7162-2.4028 3.4326 0 1.7162 0.51462 3.4326 2.4028 3.4326 1.3731 0 1.8878-0.8585 2.0591-2.0596h3.7764c0 2.5742-2.06 5.3204-5.6641 5.3204-4.2905 0-6.5219-2.9175-6.5219-6.6934 0-3.9472 2.5747-6.6934 6.5219-6.6934 3.4326 0 5.3209 1.8876 5.6641 4.977h-3.7764m203.04-37.072h1.2012c2.7462 0 3.09 2.2312 3.09 2.9175 0 1.2025-0.34375 3.2612-2.9175 3.2612h-1.3738v-6.1788zm-3.9475 9.44h5.665c4.4612 0 6.5212-2.575 6.5212-6.35 0-3.2612-1.545-6.5225-5.8362-6.5225h-6.35v12.872m-25.916-9.7825h1.8888c1.545 0 1.8875 0.51375 1.8875 1.3725 0 1.03-0.85875 1.2012-1.7162 1.2012h-2.06v-2.5738zm-3.9462 9.7825h3.9462v-4.4625h2.2325c1.5438 0 1.5438 1.2012 1.715 2.4025 0 0.68625 0.1725 1.3738 0.34375 2.06h3.9475c-0.34375-0.68625-0.34375-2.06-0.515-2.7462-0.17125-1.545-0.68625-2.7462-1.8875-3.2612 1.3725-0.3425 1.8875-1.8875 1.8875-3.0888 0-2.4025-1.8875-3.7762-4.1188-3.7762h-7.5512v12.872m-26.431-6.35c0-2.9188 1.545-3.6038 2.4025-3.6038 1.03 0 2.575 0.685 2.575 3.6038 0 2.7462-1.545 3.4325-2.575 3.4325-0.8575 0-2.4025-0.68625-2.4025-3.4325zm-3.9475 0c0 3.775 2.5738 6.6925 6.35 6.6925 3.9475 0 6.5225-2.9175 6.5225-6.6925 0-3.9475-2.575-6.6938-6.5225-6.6938-3.7762 0-6.35 2.7462-6.35 6.6938m-28.148-6.5225h9.955v3.4325h-6.0075v1.545h5.1488v2.9175h-5.1488v4.9775h-3.9475v-12.872m-29.692 0h9.9546v3.4325h-6.0069v1.545h5.149v2.9175h-5.149v4.9775h-3.9478v-12.872m-27.289 12.872h3.9473v-12.872h-3.9473v12.872zm-31.065-12.872h3.9472v9.6112h5.6641v3.2612h-9.6114v-12.872m-22.655 4.8062c-0.17138-0.515-0.51462-1.8875-2.0591-1.8875-1.8881 0-2.4028 1.8875-2.4028 3.6038 0 1.7162 0.51462 3.4325 2.4028 3.4325 1.3731 0 1.8878-0.85875 2.0591-2.06h3.7764c0 2.575-2.06 5.32-5.6641 5.32-4.2905 0-6.5219-2.9175-6.5219-6.6925 0-4.12 2.5747-6.6938 6.5219-6.6938 3.4326 0 5.3209 1.8875 5.6641 4.9775h-3.7764" fill-rule="evenodd" fill="#100e0d"/></svg>
