<?xml version="1.0" encoding="utf-8"?>
<!-- Generator: Adobe Illustrator 12.0.0, SVG Export Plug-In . SVG Version: 6.00 Build 51448)  -->
<!DOCTYPE svg PUBLIC "-//W3C//DTD SVG 1.1//EN" "http://www.w3.org/Graphics/SVG/1.1/DTD/svg11.dtd" [
	<!ENTITY ns_svg "http://www.w3.org/2000/svg">
	<!ENTITY ns_xlink "http://www.w3.org/1999/xlink">
]>
<svg  version="1.1" id="Layer_1" xmlns="&ns_svg;" xmlns:xlink="&ns_xlink;" width="431.73" height="70.863"
	 viewBox="0 0 431.73 70.863" overflow="visible" enable-background="new 0 0 431.73 70.863" xml:space="preserve">
<path fill="#C60076" d="M0,69.832V2.371h9.785v59.227H36.98v8.234H0z"/>
<path fill="#C60076" d="M53.941,69.832V29.047h-12.43v-7.52h21.688v48.305H53.941z M57.848,13.492c-3.918,0-6.906-2.984-6.906-6.797
	C50.941,2.984,53.93,0,57.848,0c3.91,0,7.004,2.984,7.004,6.695C64.852,10.508,61.758,13.492,57.848,13.492z"/>
<path fill="#C60076" d="M110.68,69.832V35.949c0-4.633-2.262-7.313-6.281-7.313c-3.602,0-9.477,4.016-11.848,9.777v31.418H83.18
	V21.527h8.238l0.207,7.625h0.207c0,0,0.719-1.445,1.547-2.477c3.402-4.117,7.516-6.18,12.461-6.18
	c8.754,0,14.215,5.668,14.215,14.73v34.605H110.68z"/>
<path fill="#C60076" d="M165.648,69.832l-17.402-20.184c-0.418-0.516-1.234-1.648-1.234-1.648h-0.207v21.832h-9.172V1.031h9.172
	v39.758l0.207,0.102c0,0,0.926-1.344,1.441-1.953l15.465-17.41h10.281L154.008,43.57l23.176,26.262H165.648z"/>
<path fill="#C60076" d="M190.805,69.832V8.555h-12.457V1.031h21.73v68.801H190.805z"/>
<path fill="#C60076" d="M242.926,69.832l-0.516-3.297c-0.105-0.926-0.305-2.574-0.305-2.574H242
	c-2.371,4.426-6.797,6.902-12.668,6.902c-3.605,0-6.902-1.031-8.863-2.477c-4.117-2.875-5.871-7.203-5.871-12.148
	c0-9.789,7.109-16.066,16.688-16.066c2.984,0,6.902,0.617,9.574,1.129l0.41,0.098v-6.48c0-5.152-4.418-6.594-8.641-6.594
	c-4.016,0-8.961,1.137-12.984,3.711l-0.313-7.621c4.336-2.781,9.789-3.918,15.453-3.918c9.684,0,15.668,6.285,15.668,15.965v33.371
	H242.926z M241.27,48.414c-1.852-0.52-5.246-1.137-7.918-1.137c-5.773,0-10.102,2.164-10.102,8.648c0,4.535,2.68,7.313,7.109,7.313
	c5.156,0,7.934-2.984,10.82-6.902l0.09-0.199V48.414z"/>
<path fill="#C60076" d="M282.703,29.047v40.785h-9.379V29.047h-12.051v-7.52h12.051V7.52h9.379v14.008h13.387v7.52H282.703z"/>
<path fill="#C60076" d="M342.098,47.383h-29.043V48c0,9.477,4.016,14.938,13.699,14.938c5.352,0,9.887-1.648,13.805-3.402v7.625
	c-4.438,1.953-8.969,3.602-15.043,3.602c-15.863,0-21.832-10.406-21.832-24.82c0-11.742,5.352-25.34,20.387-25.34
	c16.176,0,18.129,15.551,18.129,20.602C342.199,43.152,342.098,46.039,342.098,47.383z M323.555,27.914
	c-5.246,0-9.789,4.43-10.395,12.664h19.977c0,0,0-0.512,0-0.816C333.137,32.547,329.328,27.914,323.555,27.914z"/>
<path fill="#C60076" d="M390.582,37.082h-8.441v-1.027c0.105-5.254-1.961-7.828-5.668-7.828c-3.492,0-7.723,4.738-9.984,10.398
	v31.207h-9.172V21.527h7.723l0.211,7.109h0.207c0,0,1.031-1.445,1.441-2.164c3.199-4.633,6.797-6.078,10.91-6.078
	c7.73,0,12.988,5.559,12.988,13.281C390.797,34.816,390.688,35.949,390.582,37.082z"/>
<path fill="#C60076" d="M414.629,70.762c-5.656,0-10.914-1.438-15.445-4.949l0.203-8.238c4.535,3.297,8.855,5.461,15.242,5.461
	c4.738,0,8.441-1.852,8.441-6.594c0-3.914-2.574-5.664-8.949-7.93l-1.551-0.617c-5.969-2.168-12.559-5.664-12.559-14.004
	c0-8.656,7.516-13.395,15.445-13.395c4.633,0,9.164,1.031,13.59,3.918l-0.203,7.93c-4.223-2.477-8.543-4.227-13.496-4.227
	c-3.5,0-6.688,1.133-6.688,5.258c0,3.91,3.297,5.563,7.723,7.203l1.551,0.625c6.484,2.473,13.797,5.559,13.797,15.551
	C431.73,66.535,423.383,70.762,414.629,70.762z"/>
</svg>
