<svg width="335" height="57" viewBox="0 0 335 57" fill="none" xmlns="http://www.w3.org/2000/svg">
<path d="M62.0528 35.5467L71.6875 10.6206H78.3478L87.946 35.5467H81.8878L80.355 31.3315H69.6803L68.111 35.5467H62.0528ZM71.1218 26.6601H78.8952L75.0085 15.9306L71.1218 26.6601ZM90.5094 42.426V17.4999H95.2537V19.7809C96.7013 17.9561 98.5565 17.0437 100.819 17.0437C103.191 17.0437 105.119 17.8831 106.604 19.5619C108.088 21.2407 108.83 23.552 108.83 26.4959C108.83 29.4398 108.088 31.7634 106.604 33.4665C105.119 35.1574 103.191 36.0028 100.819 36.0028C98.5565 36.0028 96.7013 35.0783 95.2537 33.2292V42.426H90.5094ZM95.2537 29.7257C95.6551 30.2975 96.2451 30.7841 97.0237 31.1855C97.8023 31.5748 98.5687 31.7694 99.3229 31.7694C100.685 31.7694 101.786 31.2828 102.626 30.3096C103.465 29.3364 103.885 28.0652 103.885 26.4959C103.885 24.9388 103.465 23.6797 102.626 22.7187C101.786 21.7577 100.685 21.2771 99.3229 21.2771C98.5565 21.2771 97.784 21.4779 97.0055 21.8793C96.2269 22.2686 95.643 22.7491 95.2537 23.3209V29.7257ZM112.671 42.426V17.4999H117.415V19.7809C118.863 17.9561 120.718 17.0437 122.98 17.0437C125.353 17.0437 127.281 17.8831 128.765 19.5619C130.249 21.2407 130.991 23.552 130.991 26.4959C130.991 29.4398 130.249 31.7634 128.765 33.4665C127.281 35.1574 125.353 36.0028 122.98 36.0028C120.718 36.0028 118.863 35.0783 117.415 33.2292V42.426H112.671ZM117.415 29.7257C117.816 30.2975 118.406 30.7841 119.185 31.1855C119.963 31.5748 120.73 31.7694 121.484 31.7694C122.847 31.7694 123.947 31.2828 124.787 30.3096C125.626 29.3364 126.046 28.0652 126.046 26.4959C126.046 24.9388 125.626 23.6797 124.787 22.7187C123.947 21.7577 122.847 21.2771 121.484 21.2771C120.718 21.2771 119.945 21.4779 119.167 21.8793C118.388 22.2686 117.804 22.7491 117.415 23.3209V29.7257ZM134.832 35.5467V17.4999H139.576V19.9633C140.245 19.1239 141.103 18.4305 142.149 17.8831C143.195 17.3235 144.26 17.0437 145.342 17.0437V21.6786C145.014 21.6056 144.576 21.5691 144.028 21.5691C143.226 21.5691 142.38 21.7759 141.492 22.1895C140.604 22.591 139.965 23.0715 139.576 23.6311V35.5467H134.832ZM147.522 26.4959C147.522 24.7563 147.912 23.1688 148.69 21.7333C149.481 20.2979 150.594 19.1604 152.03 18.3211C153.465 17.4695 155.077 17.0437 156.865 17.0437C159.554 17.0437 161.731 17.9622 163.398 19.7991C165.064 21.636 165.898 24.0325 165.898 26.9886V28.0287H152.486C152.644 29.233 153.179 30.2367 154.092 31.0395C155.016 31.8303 156.214 32.2256 157.686 32.2256C158.489 32.2256 159.353 32.0614 160.277 31.7329C161.202 31.3923 161.944 30.9544 162.504 30.4191L164.584 33.4847C163.708 34.2876 162.607 34.908 161.281 35.3459C159.967 35.7839 158.593 36.0028 157.157 36.0028C154.371 36.0028 152.066 35.1331 150.241 33.3935C148.429 31.6417 147.522 29.3425 147.522 26.4959ZM152.413 24.8172H161.299C161.275 24.3549 161.172 23.9048 160.989 23.4668C160.819 23.0167 160.563 22.591 160.223 22.1895C159.894 21.7759 159.438 21.4475 158.854 21.2042C158.27 20.9487 157.607 20.821 156.865 20.821C156.16 20.821 155.521 20.9426 154.949 21.1859C154.39 21.4292 153.939 21.7516 153.599 22.153C153.258 22.5545 152.991 22.9802 152.796 23.4303C152.601 23.8805 152.474 24.3427 152.413 24.8172ZM169.702 35.5467V17.4999H174.446V19.8538C175.103 19.0631 175.979 18.4001 177.074 17.8649C178.169 17.3174 179.397 17.0437 180.76 17.0437C182.694 17.0437 184.154 17.5547 185.139 18.5765C186.137 19.5862 186.636 20.9974 186.636 22.8099V35.5467H181.891V24.6347C181.891 23.4425 181.599 22.5849 181.015 22.0618C180.444 21.5387 179.622 21.2771 178.552 21.2771C177.688 21.2771 176.897 21.484 176.18 21.8976C175.462 22.299 174.884 22.7978 174.446 23.3939V35.5467H169.702ZM189.655 21.6421V17.4999H192.648V12.5549H197.429V17.4999H201.096V21.6421H197.429V29.7987C197.429 30.3705 197.575 30.8449 197.866 31.222C198.158 31.587 198.56 31.7694 199.071 31.7694C199.411 31.7694 199.74 31.7147 200.056 31.6052C200.372 31.4957 200.598 31.3741 200.731 31.2403L201.735 34.835C200.871 35.6136 199.551 36.0028 197.775 36.0028C196.109 36.0028 194.837 35.5832 193.962 34.7438C193.086 33.8922 192.648 32.6636 192.648 31.0578V21.6421H189.655ZM205.065 14.7263C204.505 14.1667 204.225 13.4976 204.225 12.7191C204.225 11.9405 204.505 11.2775 205.065 10.7301C205.624 10.1827 206.293 9.90894 207.072 9.90894C207.863 9.90894 208.532 10.1827 209.079 10.7301C209.639 11.2775 209.919 11.9405 209.919 12.7191C209.919 13.4976 209.639 14.1667 209.079 14.7263C208.532 15.2737 207.863 15.5474 207.072 15.5474C206.306 15.5474 205.636 15.2737 205.065 14.7263ZM204.718 35.5467V17.4999H209.462V35.5467H204.718ZM213.394 26.4959C213.394 23.7345 214.288 21.4718 216.077 19.7079C217.877 17.9318 220.17 17.0437 222.956 17.0437C226.119 17.0437 228.497 18.1264 230.091 20.2918L226.989 23.2114C226.125 21.9219 224.854 21.2771 223.175 21.2771C221.727 21.2771 220.547 21.7577 219.635 22.7187C218.735 23.6797 218.285 24.9388 218.285 26.4959C218.285 28.0652 218.735 29.3364 219.635 30.3096C220.547 31.2828 221.727 31.7694 223.175 31.7694C224.805 31.7694 226.076 31.1247 226.989 29.8352L230.091 32.7001C229.397 33.6611 228.461 34.4518 227.281 35.0722C226.101 35.6926 224.659 36.0028 222.956 36.0028C220.17 36.0028 217.877 35.1148 216.077 33.3387C214.288 31.5505 213.394 29.2695 213.394 26.4959ZM232.417 26.4959C232.417 24.7563 232.806 23.1688 233.585 21.7333C234.375 20.2979 235.489 19.1604 236.924 18.3211C238.36 17.4695 239.971 17.0437 241.76 17.0437C244.448 17.0437 246.626 17.9622 248.292 19.7991C249.959 21.636 250.792 24.0325 250.792 26.9886V28.0287H237.38C237.538 29.233 238.074 30.2367 238.986 31.0395C239.911 31.8303 241.109 32.2256 242.581 32.2256C243.384 32.2256 244.247 32.0614 245.172 31.7329C246.096 31.3923 246.839 30.9544 247.398 30.4191L249.478 33.4847C248.602 34.2876 247.501 34.908 246.176 35.3459C244.862 35.7839 243.487 36.0028 242.052 36.0028C239.266 36.0028 236.961 35.1331 235.136 33.3935C233.323 31.6417 232.417 29.3425 232.417 26.4959ZM237.307 24.8172H246.194C246.169 24.3549 246.066 23.9048 245.884 23.4668C245.713 23.0167 245.458 22.591 245.117 22.1895C244.789 21.7759 244.333 21.4475 243.749 21.2042C243.165 20.9487 242.502 20.821 241.76 20.821C241.054 20.821 240.415 20.9426 239.844 21.1859C239.284 21.4292 238.834 21.7516 238.493 22.153C238.153 22.5545 237.885 22.9802 237.69 23.4303C237.496 23.8805 237.368 24.3427 237.307 24.8172Z" fill="white"/>
<path d="M264.641 35.5467V10.6206H269.951V20.4195H281.721V10.6206H287.067V35.5467H281.721V25.0909H269.951V35.5467H264.641ZM292.24 30.3096V17.4999H296.984V28.4484C296.984 29.6406 297.27 30.4921 297.842 31.003C298.414 31.514 299.235 31.7694 300.306 31.7694C301.157 31.7694 301.942 31.5748 302.659 31.1855C303.377 30.7962 303.967 30.3096 304.429 29.7257V17.4999H309.174V35.5467H304.429V33.2657C303.724 34.0565 302.83 34.7134 301.747 35.2365C300.677 35.7474 299.454 36.0028 298.079 36.0028C296.145 36.0028 294.685 35.5041 293.7 34.5066C292.727 33.509 292.24 32.1101 292.24 30.3096ZM314.255 35.5467V10.6206H319V19.8174C319.705 18.9171 320.539 18.2298 321.5 17.7554C322.461 17.281 323.482 17.0437 324.565 17.0437C326.913 17.0437 328.835 17.9014 330.331 19.6166C331.828 21.3197 332.576 23.625 332.576 26.5324C332.576 29.4642 331.828 31.7755 330.331 33.4665C328.835 35.1574 326.913 36.0028 324.565 36.0028C322.327 36.0028 320.472 35.0783 319 33.2292V35.5467H314.255ZM319 29.7622C319.389 30.334 319.973 30.8145 320.751 31.2038C321.53 31.5809 322.302 31.7694 323.069 31.7694C324.456 31.7694 325.569 31.2889 326.408 30.3279C327.248 29.3669 327.667 28.1017 327.667 26.5324C327.667 24.9631 327.248 23.698 326.408 22.7369C325.569 21.7637 324.456 21.2771 323.069 21.2771C322.302 21.2771 321.53 21.4779 320.751 21.8793C319.973 22.2686 319.389 22.7613 319 23.3574V29.7622Z" fill="white"/>
<g filter="url(#filter0_d_106_6167)">
<path d="M42.0933 0H14C8.47715 0 4 4.47715 4 10V38.0933C4 43.6161 8.47715 48.0933 14 48.0933H42.0933C47.6161 48.0933 52.0933 43.6161 52.0933 38.0933V10C52.0933 4.47715 47.6161 0 42.0933 0Z" fill="#13493B"/>
<path d="M42.0933 0.5H14C8.75329 0.5 4.5 4.75329 4.5 10V38.0933C4.5 43.34 8.75329 47.5933 14 47.5933H42.0933C47.34 47.5933 51.5933 43.34 51.5933 38.0933V10C51.5933 4.75329 47.34 0.5 42.0933 0.5Z" stroke="white"/>
</g>
<path d="M8.21387 34.5017L18.6979 16.7322H23.5718L26.4657 34.5017H21.8202L21.3125 30.8971H15.0424L13.0497 34.5017H8.21387ZM16.7305 27.3812H21.1094L20.1956 21.3396L16.7305 27.3812Z" fill="white"/>
<path d="M28.6885 34.5017L32.4454 16.7322H36.6593L35.2632 23.3196H42.2694L43.6656 16.7322H47.8795L44.1225 34.5017H39.9086L41.4571 27.1655H34.4508L32.9024 34.5017H28.6885Z" fill="white"/>
<path d="M22.834 10.4734L24.5155 13.1827C24.5155 13.1827 21.2458 13.7128 18.9423 15.1425C16.6388 16.5722 14.712 19.2673 14.712 19.2673L13.007 16.5202C13.007 16.5202 14.672 13.671 17.1338 12.143C19.5938 10.6147 22.834 10.4734 22.834 10.4734Z" fill="#D4735E"/>
<path d="M9.8781 17.6209L8.578 17.7017L9.21775 16.5569L9.05878 16.3008C9.05878 16.3008 7.92037 15.0792 9.93209 14.8389C10.0384 14.8328 10.1082 14.8501 10.152 14.882L14.3709 7.32124L25.8275 6.9126L23.5353 10.3442L23.2432 9.87362C23.2432 9.87362 19.6313 10.0322 16.8858 11.7363C14.1409 13.4399 12.2853 16.6163 12.2853 16.6163L12.7954 17.4382L10.4452 17.5855L12.824 21.4182L13.4108 21.0539L14.2563 22.4162L13.1413 22.3612L12.6099 23.438L11.764 22.0753L12.3984 21.6816L9.8781 17.6209ZM9.33768 15.7999L9.49698 16.0565L9.83432 15.4519C9.56968 15.444 9.13579 15.4746 9.33768 15.7999ZM10.4447 17.1951C10.5014 17.1627 10.551 17.1193 10.5905 17.0673C10.63 17.0154 10.6587 16.956 10.6748 16.8927C10.6908 16.8294 10.694 16.7636 10.684 16.699C10.6741 16.6345 10.6512 16.5727 10.6168 16.5172C10.5824 16.4617 10.5372 16.4137 10.4839 16.3761C10.4305 16.3384 10.3701 16.312 10.3063 16.2982C10.2425 16.2844 10.1765 16.2836 10.1124 16.2959C10.0483 16.3082 9.98732 16.3333 9.9331 16.3697C9.82863 16.4398 9.75542 16.5477 9.72888 16.6707C9.70235 16.7937 9.72456 16.9221 9.79084 17.0291C9.85712 17.136 9.9623 17.2131 10.0842 17.2441C10.2062 17.275 10.3354 17.2575 10.4447 17.1951Z" fill="#D4735E"/>
<defs>
<filter id="filter0_d_106_6167" x="0" y="0" width="56.0933" height="56.0933" filterUnits="userSpaceOnUse" color-interpolation-filters="sRGB">
<feFlood flood-opacity="0" result="BackgroundImageFix"/>
<feColorMatrix in="SourceAlpha" type="matrix" values="0 0 0 0 0 0 0 0 0 0 0 0 0 0 0 0 0 0 127 0" result="hardAlpha"/>
<feOffset dy="4"/>
<feGaussianBlur stdDeviation="2"/>
<feComposite in2="hardAlpha" operator="out"/>
<feColorMatrix type="matrix" values="0 0 0 0 0 0 0 0 0 0 0 0 0 0 0 0 0 0 0.25 0"/>
<feBlend mode="normal" in2="BackgroundImageFix" result="effect1_dropShadow_106_6167"/>
<feBlend mode="normal" in="SourceGraphic" in2="effect1_dropShadow_106_6167" result="shape"/>
</filter>
</defs>
</svg>
